# xmcd
#
# Track frame offsets:
#	150
#	10265
#	22565
#	34690
#	47562
#	60902
#	73825
#	85067
#	96492
#	108432
#	120407
#	132767
#	144110
#	156145
#	169490
#	184200
#	197240
#	209975
#	222887
#	234970
#	247070
#	259317
#	271525
#	283855
#	295662
#	309525
#	321175
#	333552
#	344410
#
# Disc length: 4733
#
# Revision: 2
# Processed by: cddbd v1.5.1PL0 Copyright (c) Steve Scherf et al.
# Submitted via: tcd 2.0b
# Normalized: r1:TDELIM( - )
#
DISCID=ae127b1d
DTITLE=Various Artist - Ladies Sing The Blues
DYEAR=1900
DGENRE=
TTITLE0=Fast Movin' Mama - Dinah Washington
TTITLE1=Juice Head Man Of Mine - Dinah Washington
TTITLE2=What's The Matter With Baby - Dinah Washington
TTITLE3=Don't Hold Againt Me - Dinah Washington
TTITLE4=Be Fair To Me - Dinah Washington
TTITLE5=(All Alone) I Sit And Cry - Violet Hall
TTITLE6=Six Foot Papa (I'm A Whole Lot of Woman) - Violet Hall
TTITLE7=Goodbye - Meredith Howard
TTITLE8=Ten Minutes More (And I'll Be Gone) - Meredith Howard
TTITLE9=Just Kiss Me Once (And You'll Be Back) - Meredith Howard
TTITLE10=Pista 11Lonely Blues - Joyce Jackson
TTITLE11=Body Rocking Daddy - Joyce Jackson
TTITLE12=Lovin' Blues - Joyce Jackson
TTITLE13=Pillow Blues - Dinah Washington
TTITLE14=Gambler's Blues - Dinah Washington
TTITLE15=(Seems Like) You Just Don't Care - Zilla Mays
TTITLE16=(Please Don't Give None Of) My Good Love Away - Zilla Mays
TTITLE17=Gotta Keep Movin' - Zilla Mays
TTITLE18=Take Your Time - Zilla Mays
TTITLE19=Thank You - Zilla Mays
TTITLE20=(When We) Get Together To Love - Zilla Mays
TTITLE21=Thinking It Over - Ella Johnson
TTITLE22=It Used To Hurt Me - Ella Johnson
TTITLE23=Someday - Ella Johnson
TTITLE24=If You Would Only Say You're Sorry - Ella Johnson
TTITLE25=I Still Love You - Ella Johnson
TTITLE26=You Better Believe Me - Ella Johnson
TTITLE27=(Ain't It A Shame) You'll Get Them Blues - Ella Johnson
TTITLE28=Please Mr. Johnson - Ella Johnson
EXTD=
EXTT0=
EXTT1=
EXTT2=
EXTT3=
EXTT4=
EXTT5=
EXTT6=
EXTT7=
EXTT8=
EXTT9=
EXTT10=
EXTT11=
EXTT12=
EXTT13=
EXTT14=
EXTT15=
EXTT16=
EXTT17=
EXTT18=
EXTT19=
EXTT20=
EXTT21=
EXTT22=
EXTT23=
EXTT24=
EXTT25=
EXTT26=
EXTT27=
EXTT28=
PLAYORDER=
